<svg width="56" height="53" viewBox="0 0 56 53" fill="none" xmlns="http://www.w3.org/2000/svg">
<path d="M54.8 12.4977L37.3037 4.90239C36.8795 4.7183 36.4046 4.96055 36.2429 5.44312C36.0813 5.92618 36.294 6.46691 36.7183 6.651L52.2006 13.372L41.4828 18.0251L28.0034 11.0759C27.5898 10.8625 27.1031 11.0716 26.916 11.5421C26.7286 12.0132 26.9123 12.5673 27.3255 12.7808L39.3194 18.9643L27.6645 24.0237L3.12838 13.372L27.6645 2.72023L33.711 5.34555C34.1344 5.52916 34.6097 5.28739 34.7718 4.80434C34.9335 4.32176 34.7207 3.78103 34.2965 3.59694L27.9574 0.844728C27.7687 0.763017 27.5602 0.762536 27.3715 0.844728L0.528924 12.4977C0.210641 12.6361 0 12.9841 0 13.372V17.645C0 18.0328 0.210641 18.3808 0.528924 18.5193L8.91109 22.1578V25.4003C8.91109 25.917 9.27876 26.3361 9.73255 26.3361C10.1868 26.3361 10.5544 25.917 10.5544 25.4003V22.8716L27.3715 30.1722C27.4661 30.213 27.5653 30.2337 27.6645 30.2337C27.7637 30.2337 27.8629 30.213 27.9574 30.1722L40.6339 24.6692V39.4771C36.6541 41.8559 32.1914 43.1306 27.6645 43.1306C21.4862 43.1306 15.4262 40.759 10.5544 36.4432V29.1431C10.5544 28.6264 10.1868 28.2073 9.73255 28.2073C9.27876 28.2073 8.91109 28.6264 8.91109 29.1431V36.8965C8.91109 37.1806 9.02422 37.4493 9.21882 37.6266C14.4325 42.3827 20.9835 45.0017 27.6645 45.0017C32.1703 45.0017 36.6161 43.8088 40.6339 41.5742V45.3613C39.3097 45.7732 38.3333 47.1541 38.3333 48.7907C38.3333 50.7508 39.7339 52.3461 41.4554 52.3461C43.1772 52.3461 44.5778 50.7508 44.5778 48.7907C44.5778 47.1541 43.6014 45.7732 42.2772 45.3613V40.586C43.6166 39.7184 44.8999 38.7312 46.1106 37.6266C46.3052 37.4493 46.4187 37.1806 46.4187 36.8965V22.1573L54.8 18.5188C55.1183 18.3808 55.329 18.0328 55.329 17.6445V13.372C55.329 12.9841 55.1183 12.6361 54.8 12.4977ZM42.9345 48.7907C42.9345 49.7189 42.2709 50.4744 41.4554 50.4744C40.6402 50.4744 39.9766 49.7189 39.9766 48.7907C39.9766 47.8621 40.6402 47.1065 41.4554 47.1065C42.2709 47.1065 42.9345 47.8621 42.9345 48.7907ZM1.64334 14.7303L26.8426 25.6699V27.9396L1.64334 16.9999V14.7303ZM28.4864 27.9396V25.6699L40.6339 20.3962V22.6663L28.4864 27.9396ZM44.775 36.4428C43.9733 37.1532 43.1388 37.8097 42.2772 38.4125V23.9554L44.775 22.8711V36.4428ZM42.2772 21.9526V19.6829L53.6856 14.7303V16.9999L42.2772 21.9526Z" fill="#141414" stroke="white" stroke-width="0.25"/>
</svg>
